# xmcd
#
# Track frame offsets:
#	150
#	15392
#	32718
#	49980
#	71582
#	88296
#	107287
#	122523
#	139841
#	157092
#	178697
#	195407
#
# Disc length: 2858 seconds
#
# Revision: 0
# Processed by: cddbd v1.5.2PL0 Copyright (c) Steve Scherf et al.
# Submitted via: audiograbber 1.83.01
#
DISCID=9d0b280c
DTITLE=Various Artist - CB20073 Hot Hits Vol. 73
DYEAR=1900
DGENRE=Country
TTITLE0=Neal McCoy - I Was (Vocals)
TTITLE1=Charlie Robinson - Barlight (Vocals)
TTITLE2=Allison Moorer - Pardon Me (Vocals)
TTITLE3=Steve Wariner - Two Teardrops (Vocals)
TTITLE4=Julie Reeves - It's About Time (Vocals)
TTITLE5=Sammy Kershaw and Lorrie Morgan - Maybe Not Tonight (Vocals)
TTITLE6=Neal McCoy - I Was
TTITLE7=Charlie Robinson - Barlight
TTITLE8=Allison Moorer - Pardon Me
TTITLE9=Steve Wariner - Two Teardrops
TTITLE10=Julie Reeves - It's About Time
TTITLE11=Sammy Kershaw and Lorrie Morgan - Maybe Not Tonight
EXTD=
EXTT0=
EXTT1=
EXTT2=
EXTT3=
EXTT4=
EXTT5=
EXTT6=
EXTT7=
EXTT8=
EXTT9=
EXTT10=
EXTT11=
PLAYORDER=
